<svg xmlns="http://www.w3.org/2000/svg" width="704" height="863" viewBox="0 0 704 863">
<g>
<path d="M 173.00 732.98 C166.90,732.14 164.60,731.69 158.00,730.06 C155.52,729.45 152.68,728.75 151.67,728.51 C150.66,728.28 145.04,725.71 139.17,722.82 C130.48,718.53 126.64,715.85 118.50,708.40 C101.55,692.88 92.74,675.07 89.90,650.64 C88.77,640.97 89.07,631.98 90.87,621.00 C92.70,609.79 101.70,587.39 105.89,583.60 C107.05,582.55 108.00,581.03 108.00,580.22 C108.00,578.40 122.90,563.00 129.00,558.52 C136.09,553.31 150.49,546.30 155.73,545.52 C158.35,545.13 161.07,544.34 161.76,543.77 C163.90,542.01 192.35,543.54 200.00,545.83 C206.99,547.92 214.88,550.88 216.50,552.02 C217.05,552.41 218.66,553.00 220.09,553.34 C224.00,554.27 228.00,557.85 228.00,560.42 C228.00,561.67 227.11,563.49 226.03,564.48 C224.22,566.11 223.09,566.17 212.83,565.20 C205.85,564.54 200.94,564.50 199.87,565.07 C198.91,565.58 195.96,566.00 193.32,566.01 C190.67,566.01 187.21,566.68 185.64,567.51 C184.06,568.33 181.90,569.00 180.85,569.00 C176.38,569.00 160.97,578.71 154.25,585.75 C151.91,588.20 150.00,590.58 150.00,591.03 C150.00,591.49 149.41,592.45 148.69,593.18 C146.73,595.16 141.05,606.95 139.86,611.50 C137.19,621.71 136.73,640.22 139.02,645.50 C139.50,646.60 140.79,649.56 141.90,652.09 C147.28,664.40 158.89,672.12 175.00,674.08 C188.11,675.68 207.65,673.75 216.50,669.98 C217.60,669.51 219.62,668.83 221.00,668.46 C222.38,668.10 238.12,660.59 256.00,651.77 C289.90,635.05 327.35,616.83 332.50,614.54 C335.86,613.05 361.73,600.26 384.50,588.83 C430.45,565.77 446.26,558.00 447.24,558.00 C447.85,558.00 451.30,556.72 454.92,555.15 C462.54,551.84 467.18,550.15 471.78,549.01 C473.58,548.56 475.61,547.77 476.28,547.24 C476.95,546.71 480.33,545.99 483.80,545.65 C487.26,545.30 491.01,544.53 492.12,543.93 C495.17,542.30 528.15,542.27 535.50,543.89 C538.80,544.61 543.30,545.58 545.50,546.02 C553.96,547.74 566.77,553.34 575.86,559.30 C582.20,563.45 599.03,580.81 600.99,585.23 C602.04,587.58 604.04,591.05 605.45,592.94 C606.85,594.84 608.00,597.15 608.00,598.08 C608.00,599.01 608.67,601.06 609.49,602.64 C610.32,604.21 610.99,606.51 610.99,607.75 C611.00,608.99 611.36,610.00 611.79,610.00 C612.23,610.00 613.34,616.19 614.26,623.75 C615.87,637.00 615.78,641.50 613.60,656.04 C612.11,666.01 605.35,682.64 598.58,693.00 C589.40,707.07 566.37,727.00 559.32,727.00 C558.29,727.00 556.56,727.61 555.47,728.36 C554.39,729.11 552.15,729.98 550.50,730.28 C548.85,730.59 545.70,731.31 543.50,731.89 C541.30,732.48 534.64,732.96 528.71,732.98 C512.94,733.01 497.02,729.43 484.00,722.90 C475.25,718.52 474.22,716.78 478.07,712.93 C480.03,710.97 480.84,710.89 492.38,711.55 C502.28,712.12 506.23,711.91 513.06,710.47 C517.70,709.49 521.95,708.36 522.50,707.96 C523.05,707.56 525.08,706.90 527.00,706.49 C534.09,705.00 555.00,688.74 555.00,684.72 C555.00,683.96 556.09,682.32 557.43,681.06 C558.98,679.61 561.20,674.74 563.54,667.64 C567.11,656.79 567.20,656.18 566.81,644.25 C566.56,636.54 565.96,631.56 565.20,630.80 C564.54,630.14 564.00,628.78 564.00,627.78 C564.00,623.78 554.79,611.97 549.60,609.31 C547.90,608.44 546.28,607.44 546.00,607.10 C545.30,606.23 536.52,603.38 530.09,601.94 C524.11,600.60 504.20,601.40 502.55,603.05 C502.03,603.57 500.00,604.00 498.05,604.01 C496.10,604.01 493.21,604.68 491.64,605.51 C490.06,606.33 487.78,607.00 486.58,607.00 C485.37,607.00 483.51,607.66 482.44,608.47 C481.37,609.28 479.60,609.96 478.50,609.98 C477.40,610.01 474.70,611.11 472.50,612.43 C467.65,615.34 456.28,621.00 455.27,621.00 C454.87,621.00 429.11,633.65 398.02,649.11 C320.81,687.52 305.56,695.00 304.45,695.00 C303.93,695.01 292.25,700.67 278.50,707.60 C264.75,714.52 251.02,721.07 248.00,722.15 C244.98,723.23 241.31,724.77 239.85,725.56 C238.39,726.35 236.11,727.00 234.80,727.00 C233.48,727.00 231.90,727.51 231.28,728.12 C230.66,728.74 228.21,729.44 225.83,729.68 C223.45,729.92 220.38,730.54 219.00,731.06 C213.03,733.32 184.21,734.52 173.00,732.98 ZM 346.50 513.53 C345.95,513.30 340.18,512.65 333.69,512.09 C323.02,511.16 316.26,509.81 307.50,506.84 C305.85,506.28 302.90,505.43 300.93,504.95 C298.97,504.47 296.05,503.38 294.43,502.54 C292.82,501.70 290.94,501.01 290.25,501.01 C288.28,501.00 276.33,495.11 274.98,493.48 C274.31,492.66 273.09,492.00 272.29,492.00 C271.48,492.00 269.67,491.10 268.27,490.00 C266.87,488.90 265.20,488.00 264.55,488.00 C263.90,488.00 262.08,486.65 260.50,485.00 C258.92,483.35 257.11,482.00 256.48,482.00 C255.12,482.00 245.37,474.35 235.49,465.54 C228.60,459.40 214.53,442.91 211.99,438.00 C211.28,436.62 209.84,434.38 208.80,433.00 C204.75,427.68 199.00,418.44 199.00,417.26 C199.00,416.59 197.71,413.44 196.13,410.26 C192.45,402.89 188.21,391.70 187.32,387.00 C187.06,385.62 186.42,383.60 185.90,382.50 C185.38,381.40 184.54,377.58 184.03,374.00 C183.52,370.42 182.60,364.80 181.99,361.50 C180.58,353.91 181.25,331.96 183.33,317.50 C186.42,295.98 197.39,269.00 212.42,245.97 C216.18,240.21 220.17,234.49 221.30,233.25 C223.98,230.31 228.39,230.30 230.44,233.22 C233.15,237.09 232.71,239.24 226.01,255.00 C220.78,267.30 216.86,283.38 215.14,299.50 C214.01,310.11 215.37,332.16 217.53,338.37 C218.32,340.64 218.98,343.40 218.99,344.50 C219.00,345.60 219.68,347.79 220.51,349.36 C221.33,350.94 222.00,353.00 222.00,353.94 C222.00,356.75 233.57,378.72 238.20,384.72 C245.09,393.64 261.06,409.84 266.58,413.50 C269.37,415.36 272.24,417.58 272.95,418.44 C273.66,419.30 274.85,420.00 275.59,420.00 C276.33,420.00 278.41,421.24 280.22,422.76 C284.68,426.52 300.74,434.37 310.50,437.57 C332.99,444.93 347.31,446.70 366.11,444.45 C372.92,443.63 379.40,442.59 380.50,442.13 C383.67,440.81 389.24,438.90 392.50,438.00 C398.84,436.26 403.91,434.31 413.25,430.01 C419.54,427.11 435.48,416.32 443.82,409.32 C451.27,403.06 466.94,386.15 466.98,384.33 C466.99,383.68 468.14,381.80 469.53,380.14 C473.20,375.79 481.71,358.74 484.58,350.01 C488.41,338.35 490.29,322.65 489.59,308.00 C488.76,290.36 487.70,281.55 486.21,279.76 C485.51,278.91 485.03,277.83 485.16,277.36 C485.73,275.20 481.77,261.85 479.03,256.73 C477.37,253.60 475.99,250.02 475.97,248.77 C475.95,247.52 475.28,245.63 474.47,244.56 C471.51,240.64 473.32,231.00 477.02,231.00 C480.31,231.00 487.86,236.76 487.96,239.36 C487.98,239.83 489.35,241.92 491.00,244.00 C492.65,246.08 494.00,248.09 494.00,248.46 C494.00,248.84 495.43,251.22 497.18,253.76 C501.17,259.56 511.00,278.89 511.01,280.96 C511.01,281.81 511.68,283.79 512.51,285.36 C513.33,286.94 514.00,288.96 514.01,289.86 C514.01,290.76 514.68,292.79 515.51,294.36 C516.33,295.94 517.00,298.09 517.00,299.15 C517.00,300.21 517.63,302.07 518.40,303.29 C519.18,304.50 520.04,308.42 520.33,312.00 C520.62,315.58 521.35,319.88 521.96,321.56 C523.85,326.79 522.65,364.71 520.26,375.50 C519.17,380.45 517.81,385.62 517.24,387.00 C516.67,388.38 515.67,391.52 515.02,394.00 C514.36,396.48 511.65,403.23 508.98,409.00 C506.31,414.77 503.86,420.17 503.55,421.00 C503.23,421.83 501.74,424.34 500.23,426.59 C498.73,428.84 496.51,432.22 495.31,434.09 C483.66,452.22 463.02,472.76 443.72,485.44 C436.71,490.04 411.12,502.95 408.94,502.98 C408.08,502.99 405.60,503.86 403.42,504.91 C401.24,505.96 397.67,507.13 395.48,507.51 C393.29,507.88 389.25,508.79 386.50,509.52 C377.37,511.96 349.45,514.76 346.50,513.53 ZM 395.20 283.74 C392.23,280.17 392.98,273.26 396.82,268.75 C400.26,264.70 405.00,245.47 405.00,235.50 C405.00,227.16 403.07,213.12 401.40,209.35 C400.63,207.62 400.00,205.54 400.00,204.74 C400.00,202.75 394.49,192.51 390.40,186.90 C383.98,178.09 373.07,169.53 366.72,168.33 C364.95,167.99 362.92,167.26 362.22,166.71 C361.43,166.09 356.98,165.93 350.72,166.28 C341.23,166.82 339.93,167.16 332.50,171.01 C321.77,176.58 314.92,183.86 308.88,196.12 C301.58,210.95 300.49,215.93 300.59,234.01 C300.67,248.75 300.84,250.01 303.98,259.51 C305.79,265.00 308.34,271.43 309.64,273.79 C312.62,279.20 312.62,281.33 309.62,282.94 C305.92,284.91 301.39,283.41 298.30,279.17 C296.82,277.15 295.13,275.05 294.54,274.50 C293.33,273.37 290.13,268.61 288.35,265.29 C287.69,264.07 286.47,261.82 285.64,260.29 C278.78,247.70 274.20,227.10 274.06,208.17 C273.99,199.09 275.64,181.99 276.96,178.00 C277.42,176.62 278.58,172.80 279.54,169.50 C281.75,161.91 289.71,146.32 295.36,138.50 C300.79,130.99 310.52,122.93 319.00,118.93 C322.58,117.24 326.28,115.44 327.24,114.93 C328.19,114.42 329.77,114.00 330.74,113.99 C331.71,113.99 333.79,113.32 335.36,112.49 C338.66,110.77 361.04,110.40 367.00,111.97 C368.92,112.47 372.08,113.29 374.00,113.79 C383.00,116.10 397.10,124.59 403.85,131.76 C412.38,140.83 424.00,160.84 424.00,166.48 C424.00,167.87 424.40,169.00 424.89,169.00 C425.38,169.00 426.26,171.81 426.84,175.25 C427.42,178.69 428.39,183.98 429.00,187.00 C430.95,196.74 430.45,222.44 428.11,233.12 C425.14,246.66 422.18,255.04 417.91,262.00 C417.40,262.83 416.44,264.62 415.78,266.00 C412.85,272.07 403.85,282.86 400.83,283.91 C396.88,285.29 396.47,285.28 395.20,283.74 Z" fill="rgba(0,0,0,1)"/>
</g>
</svg>